<svg xmlns="http://www.w3.org/2000/svg" xmlns:xlink="http://www.w3.org/1999/xlink" xmlns:xodm="http://www.corel.com/coreldraw/odm/2003" xml:space="preserve" width="140.72mm" height="22.6245mm" style="shape-rendering:geometricPrecision; text-rendering:geometricPrecision; image-rendering:optimizeQuality; fill-rule:evenodd; clip-rule:evenodd" viewBox="0 0 12100.87 1945.53"> <defs>  <style type="text/css">       .fil0 {fill:#895FD4}    .fil1 {fill:#FFA300}    .fil2 {fill:#373435;fill-rule:nonzero}     </style> </defs> <g id="Camada_x0020_1">  <metadata id="CorelCorpID_0Corel-Layer"></metadata>  <g id="_2120840747360">   <path class="fil0" d="M811.6 249.31l-513.56 0 -149.15 149.15c-198.5,198.55 -198.5,521.59 0,720.13 198.58,198.53 521.63,198.53 720.13,0l463.38 -463.34c27.59,-27.59 64.29,-42.81 103.31,-42.81 39.01,0 75.68,15.21 103.27,42.81 56.97,56.94 56.97,149.65 0,206.59l-566.65 566.65 -108.95 -108.94 -256.78 256.76 365.73 365.72 823.43 -823.43c198.51,-198.54 198.51,-521.59 0,-720.13 -96.17,-96.14 -224.04,-149.15 -360.05,-149.15 -136.04,0 -263.88,53.01 -360.08,149.15l-463.37 463.38c-56.94,56.94 -149.63,56.94 -206.6,0 -56.96,-56.98 -56.96,-149.64 0,-206.59l405.94 -405.94z"></path>   <polygon class="fil1" points="423.34,124.01 936.9,124.01 1057.76,3.15 544.2,3.15 "></polygon>  </g>  <path class="fil2" d="M2724.34 1551.05c-42.68,0 -88.46,-1.38 -137.34,-4.13 -48.89,-2.75 -96.73,-6.19 -143.55,-10.33 -46.81,-4.13 -89.49,-8.95 -128.04,-14.46l0 -206.54c20.65,1.38 45.09,3.1 73.32,5.17 28.22,2.06 58.86,3.78 91.91,5.16 33.04,1.38 65.4,2.76 97.07,4.14 31.66,1.38 61.27,2.06 88.8,2.06 63.34,0 109.12,-3.1 137.35,-9.3 28.22,-6.19 46.47,-17.21 54.73,-33.05 8.26,-15.83 12.39,-36.83 12.39,-62.99 0,-27.53 -2.76,-47.85 -8.26,-60.93 -5.51,-13.08 -15.83,-21.69 -30.98,-25.81 -15.14,-4.14 -39.93,-8.26 -74.35,-12.39l-245.77 -30.98c-64.71,-8.26 -113.24,-25.47 -145.6,-51.63 -32.36,-26.17 -54.39,-61.28 -66.09,-105.33 -11.7,-44.06 -17.55,-96.39 -17.55,-156.97 0,-71.6 10.67,-128.4 32.01,-170.39 21.34,-42 50.95,-73.66 88.81,-95 37.86,-21.34 83.3,-35.45 136.31,-42.34 53.01,-6.88 110.5,-10.33 172.46,-10.33 41.31,0 83.99,1.38 128.05,4.14 44.06,2.75 86.4,6.54 127.02,11.36 40.61,4.82 74.69,10.67 102.23,17.55l0 204.46c-31.66,-4.13 -66.77,-7.22 -105.33,-9.29 -38.55,-2.06 -76.41,-4.14 -113.59,-6.2 -37.17,-2.06 -70.22,-3.1 -99.14,-3.1 -52.32,0 -93.97,1.72 -124.95,5.16 -30.98,3.45 -52.67,12.05 -65.06,25.82 -12.39,13.77 -18.58,36.49 -18.58,68.15 0,24.78 2.06,43.72 6.19,56.8 4.14,13.08 13.08,22.03 26.86,26.85 13.77,4.82 35.8,9.3 66.09,13.43l266.43 33.04c48.19,5.51 88.8,16.53 121.85,33.05 33.05,16.53 57.49,45.44 73.32,86.74 15.84,41.31 23.75,103.96 23.75,187.94 0,72.98 -8.94,131.16 -26.85,174.52 -17.9,43.37 -45.09,76.42 -81.58,99.14 -36.49,22.72 -79.17,37.86 -128.05,45.43 -48.88,7.58 -104.3,11.36 -166.26,11.36zm976.9 0c-71.6,0 -129.43,-8.94 -173.49,-26.85 -44.06,-17.9 -77.45,-44.06 -100.17,-78.49 -22.72,-34.41 -38.21,-77.1 -46.47,-128.04 -8.26,-50.95 -12.39,-110.16 -12.39,-177.62l0 -658.84 272.63 0 0 557.63c0,63.33 2.06,113.6 6.19,150.77 4.13,37.17 12.39,64.71 24.78,82.61 12.39,17.9 30.98,29.25 55.77,34.08 24.78,4.82 57.83,7.22 99.13,7.22 44.06,0 79.86,-5.16 107.4,-15.49 27.54,-10.33 47.85,-26.85 60.93,-49.57 13.08,-22.72 21.68,-52.33 25.81,-88.81 4.13,-36.49 6.19,-80.89 6.19,-133.21l0 -545.24 272.62 0 0 1053.31 -254.03 0 -8.26 -132.18 -18.58 0c-16.53,33.05 -39.59,60.93 -69.19,83.64 -29.61,22.72 -65.06,39.24 -106.36,49.57 -41.31,10.33 -88.81,15.49 -142.51,15.49zm892.21 394.48l0 -1464.31 256.1 0 8.26 132.18 14.46 0c22.03,-41.31 49.57,-72.63 82.61,-93.97 33.05,-21.34 69.53,-35.8 109.46,-43.37 39.93,-7.57 79.86,-11.36 119.79,-11.36 64.72,0 120.14,8.61 166.27,25.82 46.12,17.21 83.64,46.12 112.56,86.74 28.92,40.61 49.91,96.04 62.99,166.26 13.09,70.22 19.62,157.65 19.62,262.29 0,104.64 -6.54,192.07 -19.62,262.29 -13.08,70.22 -33.38,125.99 -60.93,167.3 -27.53,41.3 -63.68,70.91 -108.43,88.8 -44.75,17.9 -99.48,26.85 -164.19,26.85 -45.44,0 -87.77,-3.78 -127.02,-11.36 -39.24,-7.57 -74,-20.65 -104.29,-39.24 -30.3,-18.58 -56.45,-45.78 -78.49,-81.58l-16.52 0 0 526.66 -272.63 0zm475.03 -631.99c45.44,0 81.92,-3.1 109.46,-9.3 27.53,-6.19 47.85,-19.27 60.93,-39.24 13.08,-19.97 21.69,-50.25 25.81,-90.88 4.14,-40.61 6.2,-96.04 6.2,-166.26 0,-70.22 -2.06,-125.98 -6.2,-167.29 -4.13,-41.3 -12.74,-71.94 -25.81,-91.91 -13.08,-19.96 -33.39,-33.04 -60.93,-39.24 -27.53,-6.19 -64.02,-9.3 -109.46,-9.3 -49.57,0 -87.44,6.54 -113.6,19.62 -26.16,13.08 -46.13,33.39 -59.89,60.93 -12.39,24.78 -20.31,56.11 -23.75,93.97 -3.44,37.86 -5.16,82.27 -5.16,133.21 0,52.33 1.72,96.73 5.16,133.22 3.44,36.49 10.67,67.12 21.69,91.9 13.77,28.92 34.42,49.57 61.96,61.97 27.53,12.39 65.41,18.58 113.6,18.58zm1202.01 237.51c-93.63,0 -171.42,-6.19 -233.38,-18.58 -61.96,-12.39 -111.18,-32.01 -147.67,-58.86 -36.49,-26.85 -64.03,-61.27 -82.61,-103.27 -18.59,-41.99 -30.3,-92.94 -35.11,-152.83 -4.82,-59.89 -7.23,-129.08 -7.23,-207.56 0,-93.63 4.82,-174.87 14.46,-243.71 9.63,-68.85 29.94,-125.64 60.93,-170.39 30.97,-44.74 79.16,-77.79 144.57,-99.13 65.4,-21.34 152.49,-32.01 261.26,-32.01 88.12,0 159.72,6.89 214.79,20.66 55.08,13.77 98.8,34.42 131.15,61.96 32.36,27.54 55.77,63 70.22,106.36 14.46,43.37 23.75,94.66 27.89,153.87 4.13,59.21 6.19,126.68 6.19,202.41l0 80.54 -658.84 0c0,52.33 2.42,94.66 7.23,127.02 4.82,32.36 16.52,56.8 35.11,73.32 18.59,16.53 48.19,27.54 88.8,33.05 40.62,5.51 96.04,8.26 166.27,8.26 28.91,0 61.61,-0.69 98.1,-2.06 36.49,-1.38 74.35,-3.45 113.6,-6.2 39.24,-2.75 75.38,-5.5 108.43,-8.26l0 202.41c-30.3,6.88 -67.13,12.74 -110.5,17.55 -43.37,4.82 -88.8,8.61 -136.31,11.36 -47.5,2.75 -93.28,4.13 -137.35,4.13zm165.23 -596.87l0 -33.05c0,-53.7 -3.1,-96.72 -9.3,-129.08 -6.19,-32.36 -16.52,-56.8 -30.97,-73.32 -14.46,-16.53 -34.08,-27.19 -58.86,-32.01 -24.78,-4.82 -56.45,-7.22 -95,-7.22 -45.44,0 -81.24,3.1 -107.4,9.29 -26.17,6.2 -46.13,17.9 -59.89,35.11 -13.78,17.22 -23.41,42 -28.92,74.36 -5.5,32.35 -8.26,73.32 -8.26,122.88l435.78 0 -37.17 33.05zm516.32 580.35l0 -1053.31 256.1 0 8.26 181.74 16.52 0c17.9,-52.32 42.34,-92.94 73.32,-121.85 30.98,-28.92 68.5,-48.88 112.56,-59.89 44.06,-11.02 94.32,-16.53 150.77,-16.53l0 260.23c-89.5,0 -159.38,12.39 -209.63,37.18 -50.25,24.78 -85.36,65.4 -105.33,121.85 -19.97,56.45 -29.94,132.87 -29.94,229.25l0 421.33 -272.63 0zm1202.02 16.52c-42.68,0 -88.46,-1.38 -137.34,-4.13 -48.89,-2.75 -96.73,-6.19 -143.55,-10.33 -46.81,-4.13 -89.49,-8.95 -128.04,-14.46l0 -206.54c20.65,1.38 45.09,3.1 73.32,5.17 28.22,2.06 58.86,3.78 91.91,5.16 33.04,1.38 65.4,2.76 97.07,4.14 31.66,1.38 61.27,2.06 88.8,2.06 63.34,0 109.12,-3.1 137.35,-9.3 28.22,-6.19 46.47,-17.21 54.73,-33.05 8.26,-15.83 12.39,-36.83 12.39,-62.99 0,-27.53 -2.76,-47.85 -8.26,-60.93 -5.51,-13.08 -15.83,-21.69 -30.98,-25.81 -15.14,-4.14 -39.93,-8.26 -74.35,-12.39l-245.77 -30.98c-64.71,-8.26 -113.24,-25.47 -145.6,-51.63 -32.36,-26.17 -54.39,-61.28 -66.09,-105.33 -11.7,-44.06 -17.55,-96.39 -17.55,-156.97 0,-71.6 10.67,-128.4 32.01,-170.39 21.34,-42 50.95,-73.66 88.81,-95 37.86,-21.34 83.3,-35.45 136.31,-42.34 53.01,-6.88 110.5,-10.33 172.46,-10.33 41.31,0 83.99,1.38 128.05,4.14 44.06,2.75 86.4,6.54 127.02,11.36 40.61,4.82 74.69,10.67 102.23,17.55l0 204.46c-31.66,-4.13 -66.77,-7.22 -105.33,-9.29 -38.55,-2.06 -76.41,-4.14 -113.59,-6.2 -37.17,-2.06 -70.22,-3.1 -99.14,-3.1 -52.32,0 -93.97,1.72 -124.95,5.16 -30.98,3.45 -52.67,12.05 -65.06,25.82 -12.39,13.77 -18.58,36.49 -18.58,68.15 0,24.78 2.06,43.72 6.19,56.8 4.14,13.08 13.08,22.03 26.86,26.85 13.77,4.82 35.8,9.3 66.09,13.43l266.43 33.04c48.19,5.51 88.8,16.53 121.85,33.05 33.05,16.53 57.49,45.44 73.32,86.74 15.84,41.31 23.75,103.96 23.75,187.94 0,72.98 -8.94,131.16 -26.85,174.52 -17.9,43.37 -45.09,76.42 -81.58,99.14 -36.49,22.72 -79.17,37.86 -128.05,45.43 -48.88,7.58 -104.3,11.36 -166.26,11.36zm640.25 -1307.34l0 -243.71 282.95 0 0 243.71 -282.95 0zm4.13 1290.82l0 -1053.31 274.69 0 0 1053.31 -274.69 0zm667.1 0l0 -832.33 -202.4 0 0 -220.98 202.4 0 0 -305.67 274.69 0 0 305.67 239.57 0 0 220.98 -239.57 0 0 832.33 -274.69 0zm1164.83 16.52c-93.63,0 -171.42,-6.19 -233.38,-18.58 -61.96,-12.39 -111.18,-32.01 -147.67,-58.86 -36.49,-26.85 -64.03,-61.27 -82.61,-103.27 -18.59,-41.99 -30.3,-92.94 -35.11,-152.83 -4.82,-59.89 -7.23,-129.08 -7.23,-207.56 0,-93.63 4.82,-174.87 14.46,-243.71 9.63,-68.85 29.94,-125.64 60.93,-170.39 30.97,-44.74 79.16,-77.79 144.57,-99.13 65.4,-21.34 152.49,-32.01 261.26,-32.01 88.12,0 159.72,6.89 214.79,20.66 55.08,13.77 98.8,34.42 131.15,61.96 32.36,27.54 55.77,63 70.22,106.36 14.46,43.37 23.75,94.66 27.89,153.87 4.13,59.21 6.19,126.68 6.19,202.41l0 80.54 -658.84 0c0,52.33 2.42,94.66 7.23,127.02 4.82,32.36 16.52,56.8 35.11,73.32 18.59,16.53 48.19,27.54 88.8,33.05 40.62,5.51 96.04,8.26 166.27,8.26 28.91,0 61.61,-0.69 98.1,-2.06 36.49,-1.38 74.35,-3.45 113.6,-6.2 39.24,-2.75 75.38,-5.5 108.43,-8.26l0 202.41c-30.3,6.88 -67.13,12.74 -110.5,17.55 -43.37,4.82 -88.8,8.61 -136.31,11.36 -47.5,2.75 -93.28,4.13 -137.35,4.13zm165.23 -596.87l0 -33.05c0,-53.7 -3.1,-96.72 -9.3,-129.08 -6.19,-32.36 -16.52,-56.8 -30.97,-73.32 -14.46,-16.53 -34.08,-27.19 -58.86,-32.01 -24.78,-4.82 -56.45,-7.22 -95,-7.22 -45.44,0 -81.24,3.1 -107.4,9.29 -26.17,6.2 -46.13,17.9 -59.89,35.11 -13.78,17.22 -23.41,42 -28.92,74.36 -5.5,32.35 -8.26,73.32 -8.26,122.88l435.78 0 -37.17 33.05zm902.54 596.87c-42.68,0 -88.46,-1.38 -137.34,-4.13 -48.89,-2.75 -96.73,-6.19 -143.55,-10.33 -46.81,-4.13 -89.49,-8.95 -128.04,-14.46l0 -206.54c20.65,1.38 45.09,3.1 73.32,5.17 28.22,2.06 58.86,3.78 91.91,5.16 33.04,1.38 65.4,2.76 97.07,4.14 31.66,1.38 61.27,2.06 88.8,2.06 63.34,0 109.12,-3.1 137.35,-9.3 28.22,-6.19 46.47,-17.21 54.73,-33.05 8.26,-15.83 12.39,-36.83 12.39,-62.99 0,-27.53 -2.76,-47.85 -8.26,-60.93 -5.51,-13.08 -15.83,-21.69 -30.98,-25.81 -15.14,-4.14 -39.93,-8.26 -74.35,-12.39l-245.77 -30.98c-64.71,-8.26 -113.24,-25.47 -145.6,-51.63 -32.36,-26.17 -54.39,-61.28 -66.09,-105.33 -11.7,-44.06 -17.55,-96.39 -17.55,-156.97 0,-71.6 10.67,-128.4 32.01,-170.39 21.34,-42 50.95,-73.66 88.81,-95 37.86,-21.34 83.3,-35.45 136.31,-42.34 53.01,-6.88 110.5,-10.33 172.46,-10.33 41.31,0 83.99,1.38 128.05,4.14 44.06,2.75 86.4,6.54 127.02,11.36 40.61,4.82 74.69,10.67 102.23,17.55l0 204.46c-31.66,-4.13 -66.77,-7.22 -105.33,-9.29 -38.55,-2.06 -76.41,-4.14 -113.59,-6.2 -37.17,-2.06 -70.22,-3.1 -99.14,-3.1 -52.32,0 -93.97,1.72 -124.95,5.16 -30.98,3.45 -52.67,12.05 -65.06,25.82 -12.39,13.77 -18.58,36.49 -18.58,68.15 0,24.78 2.06,43.72 6.19,56.8 4.14,13.08 13.08,22.03 26.86,26.85 13.77,4.82 35.8,9.3 66.09,13.43l266.43 33.04c48.19,5.51 88.8,16.53 121.85,33.05 33.05,16.53 57.49,45.44 73.32,86.74 15.84,41.31 23.75,103.96 23.75,187.94 0,72.98 -8.94,131.16 -26.85,174.52 -17.9,43.37 -45.09,76.42 -81.58,99.14 -36.49,22.72 -79.17,37.86 -128.05,45.43 -48.88,7.58 -104.3,11.36 -166.26,11.36z"></path> </g></svg>