<?xml version="1.0" encoding="UTF-8"?>
<!DOCTYPE svg PUBLIC "-//W3C//DTD SVG 1.1//EN" "http://www.w3.org/Graphics/SVG/1.1/DTD/svg11.dtd">
<!-- Creator: CorelDRAW -->
<svg xmlns="http://www.w3.org/2000/svg" xml:space="preserve" width="297mm" height="210mm" version="1.1" style="shape-rendering:geometricPrecision; text-rendering:geometricPrecision; image-rendering:optimizeQuality; fill-rule:evenodd; clip-rule:evenodd"
viewBox="0 0 29700 21000"
 xmlns:xlink="http://www.w3.org/1999/xlink"
 xmlns:xodm="http://www.corel.com/coreldraw/odm/2003">
 <defs>
  <style type="text/css">
   <![CDATA[
    .str0 {stroke:#00CF70;stroke-width:20;stroke-miterlimit:22.9256}
    .fil0 {fill:black}
    .fil3 {fill:#00CF70}
    .fil2 {fill:#00CF70;fill-rule:nonzero}
    .fil1 {fill:white;fill-rule:nonzero}
   ]]>
  </style>
 </defs>
 <g id="Camada_x0020_1">
  <metadata id="CorelCorpID_0Corel-Layer"/>
  <rect class="fil0" x="-0.53" y="7.13" width="29700" height="21000"/>
  <path class="fil1" d="M8921.73 11655.08c-29.58,0 -55.23,-10.36 -76.92,-31.07 -21.7,-20.71 -32.55,-48.81 -32.55,-84.32l0 -1500.02c0,-138.07 23.67,-259.37 71.01,-363.91 47.34,-104.53 117.36,-185.9 210.06,-244.08 92.71,-58.19 206.12,-87.28 340.24,-87.28 33.53,0 61.15,9.86 82.84,29.58 21.7,19.73 32.55,44.38 32.55,73.97 0,29.59 -10.85,54.24 -32.55,73.96 -21.69,19.73 -49.31,29.59 -82.84,29.59 -88.76,0 -162.23,20.22 -220.41,60.65 -58.19,40.44 -101.58,96.65 -130.18,168.64 -28.6,72 -42.9,154.35 -42.9,247.05l0 1511.85c0,35.51 -10.36,63.61 -31.07,84.32 -20.71,20.71 -49.8,31.07 -87.28,31.07zm-298.82 -1360.97c-31.56,0 -56.71,-9.36 -75.44,-28.1 -18.74,-18.74 -28.11,-41.92 -28.11,-69.53 0,-29.59 9.37,-53.75 28.11,-72.49 18.73,-18.73 43.88,-28.1 75.44,-28.1l772.2 0c31.56,0 56.71,9.37 75.45,28.1 18.73,18.74 28.1,42.9 28.1,72.49 0,27.61 -9.37,50.79 -28.1,69.53 -18.74,18.74 -43.89,28.1 -75.45,28.1l-772.2 0z"/>
  <path class="fil1" d="M10480.92 11669.87c-157.79,0 -298.82,-35.5 -423.08,-106.51 -124.26,-71 -221.9,-168.64 -292.9,-292.9 -71.01,-124.26 -106.51,-265.29 -106.51,-423.08 0,-159.77 35.5,-301.78 106.51,-426.04 71,-124.27 168.64,-221.9 292.9,-292.91 124.26,-71 265.29,-106.51 423.08,-106.51 157.8,0 298.33,35.51 421.61,106.51 123.27,71.01 220.41,168.64 291.42,292.91 71.01,124.26 107.5,266.27 109.47,426.04 0,157.79 -36,298.82 -107.99,423.08 -71.99,124.26 -169.63,221.9 -292.9,292.9 -123.28,71.01 -263.81,106.51 -421.61,106.51zm0 -207.1c114.4,0 216.97,-26.63 307.7,-79.88 90.73,-53.26 161.74,-126.24 213.02,-218.94 51.28,-92.7 76.92,-198.23 76.92,-316.57 0,-118.35 -25.64,-224.37 -76.92,-318.05 -51.28,-93.69 -122.29,-167.17 -213.02,-220.42 -90.73,-53.26 -193.3,-79.88 -307.7,-79.88 -114.4,0 -216.96,26.62 -307.69,79.88 -90.74,53.25 -162.24,126.73 -214.5,220.42 -52.27,93.68 -78.41,199.7 -78.41,318.05 0,118.34 26.14,223.87 78.41,316.57 52.26,92.7 123.76,165.68 214.5,218.94 90.73,53.25 193.29,79.88 307.69,79.88z"/>
  <path class="fil1" d="M11841.89 10658.03c5.92,-122.29 37.97,-231.76 96.16,-328.41 58.18,-96.65 134.12,-172.59 227.81,-227.82 93.69,-55.22 197.74,-82.84 312.13,-82.84 90.74,0 160.76,12.82 210.07,38.47 49.31,25.64 68.05,63.11 56.21,112.42 -7.89,29.59 -21.2,49.31 -39.94,59.18 -18.74,9.86 -41.42,13.8 -68.05,11.83 -26.63,-1.97 -56.71,-3.95 -90.24,-5.92 -110.45,-9.86 -208.58,1.48 -294.38,34.03 -85.8,32.54 -153.85,82.34 -204.14,149.41 -50.3,67.06 -75.45,146.94 -75.45,239.65l-130.18 0zm17.75 997.05c-35.5,0 -63.11,-9.86 -82.84,-29.59 -19.72,-19.72 -29.58,-47.33 -29.58,-82.84l0 -1393.51c0,-35.5 9.86,-63.11 29.58,-82.84 19.73,-19.72 47.34,-29.59 82.84,-29.59 35.51,0 63.12,9.87 82.84,29.59 19.73,19.73 29.59,47.34 29.59,82.84l0 1393.51c0,35.51 -9.86,63.12 -29.59,82.84 -19.72,19.73 -47.33,29.59 -82.84,29.59z"/>
  <path class="fil1" d="M15288.69 11655.08c-33.53,0 -61.15,-10.36 -82.85,-31.07 -21.69,-20.71 -32.54,-47.83 -32.54,-81.36l0 -852.08c0,-140.04 -36.49,-250.99 -109.47,-332.84 -72.98,-81.86 -166.67,-122.79 -281.07,-122.79 -122.29,0 -222.39,40.93 -300.3,122.79 -77.91,81.85 -115.88,190.83 -113.9,326.92l-204.15 0c1.97,-132.15 30.57,-248.52 85.8,-349.11 55.23,-100.6 131.17,-178.51 227.81,-233.74 96.65,-55.22 206.12,-82.84 328.41,-82.84 116.37,0 219.43,27.62 309.18,82.84 89.74,55.23 159.76,133.14 210.06,233.74 50.3,100.59 75.44,218.93 75.44,355.03l0 852.08c0,33.53 -10.35,60.65 -31.06,81.36 -20.71,20.71 -47.83,31.07 -81.36,31.07zm-2071.04 0c-35.5,0 -63.61,-10.36 -84.32,-31.07 -20.71,-20.71 -31.06,-47.83 -31.06,-81.36l0 -1390.55c0,-33.53 10.35,-61.14 31.06,-82.84 20.71,-21.7 48.82,-32.55 84.32,-32.55 33.53,0 60.65,10.85 81.36,32.55 20.71,21.7 31.07,49.31 31.07,82.84l0 1390.55c0,33.53 -10.36,60.65 -31.07,81.36 -20.71,20.71 -47.83,31.07 -81.36,31.07zm1038.48 0c-33.53,0 -61.15,-10.36 -82.84,-31.07 -21.7,-20.71 -32.55,-47.83 -32.55,-81.36l0 -852.08c0,-140.04 -36.49,-250.99 -109.47,-332.84 -72.98,-81.86 -166.67,-122.79 -281.07,-122.79 -122.29,0 -222.88,39.94 -301.78,119.83 -78.89,79.88 -118.34,183.92 -118.34,312.13l-162.72 0c3.94,-126.23 32.05,-238.17 84.32,-335.8 52.27,-97.64 123.77,-174.07 214.5,-229.3 90.73,-55.22 193.29,-82.84 307.69,-82.84 116.37,0 219.43,27.62 309.18,82.84 89.74,55.23 159.76,133.14 210.06,233.74 50.3,100.59 75.45,218.93 75.45,355.03l0 852.08c0,33.53 -10.36,60.65 -31.07,81.36 -20.71,20.71 -47.83,31.07 -81.36,31.07z"/>
  <path class="fil1" d="M16537.22 11655.08c-104.54,0 -197.73,-24.66 -279.59,-73.97 -81.85,-49.31 -146.45,-116.86 -193.79,-202.66 -47.34,-85.8 -71.01,-183.93 -71.01,-294.38l0 -1446.77c0,-33.53 10.36,-61.14 31.07,-82.84 20.71,-21.7 47.83,-32.55 81.36,-32.55 33.53,0 61.15,10.85 82.84,32.55 21.7,21.7 32.55,49.31 32.55,82.84l0 1446.77c0,100.59 29.58,182.94 88.76,247.04 59.17,64.1 135.11,96.16 227.81,96.16l79.88 0c31.56,0 57.2,10.84 76.93,32.54 19.72,21.7 29.58,49.31 29.58,82.84 0,33.53 -11.83,60.65 -35.5,81.36 -23.67,20.71 -53.26,31.07 -88.76,31.07l-62.13 0zm-736.7 -1360.97c-29.58,0 -54.24,-9.36 -73.96,-28.1 -19.73,-18.74 -29.59,-41.92 -29.59,-69.53 0,-29.59 9.86,-53.75 29.59,-72.49 19.72,-18.73 44.38,-28.1 73.96,-28.1l754.45 0c29.59,0 54.24,9.37 73.97,28.1 19.72,18.74 29.58,42.9 29.58,72.49 0,27.61 -9.86,50.79 -29.58,69.53 -19.73,18.74 -44.38,28.1 -73.97,28.1l-754.45 0z"/>
  <path class="fil2" d="M17806.47 11669.87c-151.87,0 -287.97,-35.99 -408.29,-107.99 -120.31,-71.99 -215.48,-170.12 -285.5,-294.38 -70.02,-124.26 -105.03,-264.3 -105.03,-420.12 0,-157.8 35.99,-298.82 107.99,-423.09 71.99,-124.26 170.12,-222.39 294.38,-294.38 124.26,-71.99 264.3,-107.99 420.12,-107.99 155.82,0 295.37,36 418.65,107.99 123.27,71.99 220.91,170.12 292.9,294.38 71.99,124.27 108.98,265.29 110.95,423.09l-91.72 71c0,142.02 -33.04,269.73 -99.11,383.14 -66.08,113.42 -155.82,203.16 -269.24,269.24 -113.41,66.08 -242.11,99.11 -386.1,99.11zm542.91 -507.4c52.27,-93.69 78.4,-198.72 78.4,-315.09 0,-118.35 -26.13,-223.87 -78.4,-316.58 -228.58,-405.38 -809.44,-401.29 -1039.95,0 -53.26,92.71 -79.89,198.23 -79.89,316.58 0,116.37 26.63,221.4 79.89,315.09 226.42,398.37 815.44,402.42 1039.95,0zm187.87 492.61c-33.53,0 -61.14,-10.36 -82.84,-31.07 -29.35,-28.01 -169.95,-223.16 -187.02,-276.68l154.48 -310.6 56.21 -233.73 174.56 44.38 0 695.27c0,33.53 -10.85,60.65 -32.55,81.36 -21.69,20.71 -49.31,31.07 -82.84,31.07z"/>
  <path class="fil1" d="M19445.55 11655.08c-78.89,0 -149.41,-21.7 -211.54,-65.09 -62.13,-43.39 -110.45,-103.55 -144.97,-180.48 -34.52,-76.92 -51.78,-165.68 -51.78,-266.27l0 -1686.41c0,-33.54 10.36,-60.66 31.07,-81.37 20.71,-20.71 47.83,-31.06 81.36,-31.06 33.53,0 60.65,10.35 81.36,31.06 20.71,20.71 31.07,47.83 31.07,81.37l0 1686.41c0,84.81 17.26,153.85 51.77,207.1 34.52,53.26 78.41,79.88 131.66,79.88l73.97 0c29.58,0 53.25,10.36 71.01,31.07 17.75,20.71 26.62,47.83 26.62,81.36 0,33.53 -12.32,60.65 -36.98,81.36 -24.65,20.71 -56.71,31.07 -96.15,31.07l-38.47 0z"/>
  <path class="fil1" d="M20117.16 11113.65l-139.06 -150.89 1011.85 -914.21c23.67,-21.7 48.33,-32.05 73.97,-31.07 25.64,0.99 49.31,13.32 71,36.99 21.7,23.67 32.06,48.81 31.07,75.44 -0.99,26.63 -13.31,49.8 -36.98,69.53l-1011.85 914.21zm-73.97 541.43c-33.53,0 -60.65,-10.36 -81.36,-31.07 -20.71,-20.71 -31.06,-47.83 -31.06,-81.36l0 -2085.82c0,-33.54 10.35,-60.66 31.06,-81.37 20.71,-20.71 47.83,-31.06 81.36,-31.06 33.53,0 60.66,10.35 81.37,31.06 20.71,20.71 31.06,47.83 31.06,81.37l0 2085.82c0,33.53 -10.35,60.65 -31.06,81.36 -20.71,20.71 -47.84,31.07 -81.37,31.07zm1094.69 -14.79c-25.64,21.69 -52.27,31.06 -79.88,28.1 -27.61,-2.95 -51.28,-17.25 -71.01,-42.9l-659.77 -810.66 159.77 -142.01 665.69 819.54c19.72,23.66 28.6,48.81 26.62,75.44 -1.97,26.63 -15.78,50.79 -41.42,72.49z"/>
  <path class="fil3 str0" d="M17309.43 11162.47c226.42,398.37 815.44,402.42 1039.95,0 52.27,-93.69 78.4,-198.72 78.4,-315.09 0,-118.35 -26.13,-223.87 -78.4,-316.58 -228.58,-405.38 -809.44,-401.29 -1039.95,0 -53.26,92.71 -79.89,198.23 -79.89,316.58 0,116.37 26.63,221.4 79.89,315.09z"/>
 </g>
</svg>
